<?xml version="1.0" encoding="UTF-8" standalone="no"?>
<!DOCTYPE svg PUBLIC "-//W3C//DTD SVG 1.1//EN" "http://www.w3.org/Graphics/SVG/1.1/DTD/svg11.dtd">
<svg width="1558px" height="556px" version="1.1" xmlns="http://www.w3.org/2000/svg" xmlns:xlink="http://www.w3.org/1999/xlink" xml:space="preserve" xmlns:serif="http://www.serif.com/" style="fill-rule:evenodd;clip-rule:evenodd;stroke-linejoin:round;stroke-miterlimit:2;">
    <g transform="matrix(1,0,0,1,0,-41.9173)">
        <g id="logo_entier_couleur_noir" transform="matrix(1.00417,0,0,0.945991,-54.9281,-39.4268)">
            <rect x="54.7" y="85.988" width="1551.07" height="586.699" style="fill:none;"/>
            <g id="logo" transform="matrix(0.995844,0,0,1.05709,1036.69,-145.763)">
                <g id="Calque7">
                    <g transform="matrix(1.03365,0,0,1.03365,-1658.66,-925.642)">
                        <circle cx="916.512" cy="1371.38" r="241.939" style="fill:rgb(255,210,1);"/>
                    </g>
                    <g transform="matrix(0.962167,0,0,0.931044,-1610.44,-809.754)">
                        <path d="M916.512,1129.44C957.568,1121.14 1046.79,1154.41 1046.79,1154.41C1046.79,1154.41 1119.85,1286.17 972.383,1402.51C832.535,1512.83 680.955,1446.41 680.955,1446.41C680.955,1446.41 670.413,1350.57 682.375,1329.9C759.269,1197.01 783.998,1156.24 916.512,1129.44Z" style="fill:white;fill-opacity:0.68;"/>
                    </g>
                </g>
                <g transform="matrix(1,0,0,1,-1579.11,-799.896)">
                    <path d="M755.759,1512.31C761.177,1500.93 766.966,1474.52 793.221,1468.86C918.091,1441.93 1016,1466.81 1036.83,1373.84C1062.69,1258.47 905.321,1239.45 881.231,1233.94C779.556,1210.67 828.036,1144.5 856.46,1159.12C862.454,1162.21 889.432,1183.73 933.713,1172.18C971.652,1162.29 976.734,1150.1 988.282,1145.13C1028.68,1127.75 1020.72,1118.2 1021.43,1099.49L1021.33,1097.66C1021.5,1084.99 1013,1058.11 973.299,1056.23C944.554,1054.86 941.858,1041.12 892.622,1051.6C843.8,1061.99 845.018,1089.14 817.329,1092.7C767.275,1099.13 734.169,1135.16 733.756,1197.22C732.782,1343.55 978.258,1317.88 935.509,1366.33C919.151,1384.87 684.579,1347.36 676.678,1450.02C676.678,1450.02 684.11,1462.13 712.961,1483.98C744.067,1507.54 755.759,1512.31 755.759,1512.31Z" style="fill:rgb(0,127,198);"/>
                </g>
                <g id="Calque6">
                    <g transform="matrix(1,0,0,1,-1579.11,-799.896)">
                        <path d="M883.828,1059.67C891.124,1054.65 814.399,1091.26 793.312,1101.06C772.224,1110.86 740.264,1135.88 736.597,1171.49C732.931,1207.1 753.407,1263.93 753.407,1263.93C753.407,1263.93 753.939,1246.63 755.439,1214.16C756.865,1183.3 764.821,1154.31 782.987,1138.44C804.555,1119.59 823.428,1119.73 840.389,1108.71C859.395,1096.37 851.545,1081.89 883.828,1059.67Z" style="fill:white;fill-opacity:0.75;"/>
                    </g>
                    <g transform="matrix(1,0,0,1,-1579.11,-799.896)">
                        <path d="M917.985,1243.13C917.348,1242.99 926.877,1248.68 961.233,1266.84C991.161,1282.66 1020.6,1299.57 1014.8,1353.44C1009.08,1406.69 957.684,1440.94 943.804,1445.95C929.924,1450.96 970.165,1446.27 982.457,1439.51C994.75,1432.75 1013.27,1419.07 1017.85,1412.8C1022.43,1406.53 1029.86,1394.25 1034.16,1383.51C1038.45,1372.78 1044.09,1342.05 1043.58,1332.28C1043.07,1322.52 1031.32,1289.48 1019.59,1282.09C1007.86,1274.69 980.34,1256.74 917.985,1243.13Z" style="fill:rgb(0,64,117);"/>
                    </g>
                    <g transform="matrix(1,0,0,1,-1579.11,-799.896)">
                        <path d="M693.301,1462.64C696.158,1454.42 700.846,1448.64 719.029,1434.3C756.6,1404.68 786.372,1397.04 829.023,1390.6C863.191,1385.45 894.617,1374.9 894.617,1374.9C894.617,1374.9 853.983,1369.99 822.826,1374.62C791.67,1379.25 722.889,1392.34 711.292,1400.09C699.695,1407.85 678.186,1439.68 678.186,1439.68C678.186,1439.68 690.445,1470.86 693.301,1462.64Z" style="fill:white;fill-opacity:0.75;"/>
                    </g>
                </g>
                <g transform="matrix(1,0,0,1,-1579.11,-799.896)">
                    <path d="M767.419,1503.22C797.954,1517.67 832.079,1525.76 868.078,1525.76C998.228,1525.76 1103.89,1420.09 1103.89,1289.94C1103.89,1244.92 1091.01,1200.85 1066.76,1162.92C1062.08,1155.6 1064.22,1145.85 1071.55,1141.17C1078.87,1136.49 1088.61,1138.64 1093.29,1145.96C1120.78,1188.95 1135.39,1238.91 1135.39,1289.94C1135.39,1437.47 1015.61,1557.25 868.078,1557.25C720.547,1557.25 600.77,1437.47 600.77,1289.94C600.77,1156.99 698.258,1045.15 828.161,1025.62C836.755,1024.33 844.781,1030.26 846.073,1038.85C847.365,1047.45 841.437,1055.47 832.843,1056.77C718.249,1073.99 632.262,1172.66 632.262,1289.94C632.262,1340.59 648.262,1387.52 675.477,1425.97C683.059,1410.05 697.014,1398.26 714.983,1389.63C739.033,1378.09 770.488,1372.31 802.239,1369.33C845.435,1365.29 889.148,1366.4 914.296,1364.25C919.241,1363.83 923.407,1363.29 926.616,1362.52C928.051,1362.17 929.86,1361.41 930.205,1361.27C932.169,1359.04 933.512,1357.42 933.154,1355.71C932.914,1354.58 931.89,1353.75 930.672,1352.79C928.29,1350.93 925.008,1349.27 921.052,1347.61C917.34,1346.07 913.076,1344.57 908.375,1343.08C879.332,1333.83 834.484,1324.53 796.954,1304.69C757.508,1283.83 726.066,1251.61 726.428,1197.18C726.871,1130.65 762.739,1092.33 816.395,1085.43C828.479,1083.88 834.004,1076.77 842.086,1069.32C852.047,1060.15 864.836,1050.02 891.097,1044.43C922.541,1037.74 936.153,1040.48 948.619,1043.93C955.959,1045.96 962.838,1048.39 973.647,1048.91C991.608,1049.76 1003.86,1055.34 1012.15,1062.4C1023.35,1071.92 1027.55,1084.38 1028.46,1093.45L1046.71,1095.61L1064.97,1083.47C1068.34,1081.24 1072.89,1082.15 1075.13,1085.52C1077.37,1088.89 1076.45,1093.44 1073.08,1095.68L1061.74,1103.21L1073.46,1113.79C1076.46,1116.5 1076.7,1121.13 1073.99,1124.14C1071.28,1127.14 1066.64,1127.38 1063.64,1124.67L1047.96,1110.52L1028.86,1108.25C1028.91,1109.56 1028.95,1110.82 1028.96,1112.04C1028.98,1116.93 1028.43,1121.41 1026.4,1125.85C1022.83,1133.68 1014.11,1142 991.179,1151.86C987.03,1153.65 983.874,1156.57 979.324,1159.88C971.265,1165.74 959.699,1172.98 935.562,1179.27C888.328,1191.59 859.5,1168.93 853.107,1165.64C847.202,1162.6 840.188,1164.8 835.029,1169.27C820,1182.27 822.152,1210.5 883.13,1226.86C915.761,1235.62 963.715,1242.56 999.274,1261.5C1018.27,1271.62 1033.81,1285.12 1042.45,1303.61C1051.05,1322 1052.95,1345.48 1043.86,1375.94C1029.31,1424.64 997.862,1443.07 953.168,1452.65C911.283,1461.63 857.197,1462.56 794.766,1476.02C781.588,1478.87 774.748,1488.16 770.265,1497.04C769.209,1499.13 768.271,1501.21 767.419,1503.22ZM754.384,1496.55C756.033,1492.68 757.982,1488.57 760.446,1484.59C766.792,1474.34 776.267,1465.02 791.677,1461.7C854.115,1448.23 908.207,1447.3 950.097,1438.32C989.177,1429.95 1017.1,1414.33 1029.81,1371.75C1037.6,1345.67 1036.53,1325.56 1029.17,1309.82C1021.86,1294.17 1008.46,1283 992.384,1274.44C957.796,1256.01 911.071,1249.54 879.332,1241.02C840.916,1230.71 822.765,1214.93 816.112,1200.43C808.446,1183.72 814.533,1167.62 825.442,1158.18C835.184,1149.76 848.661,1146.87 859.813,1152.61C865.407,1155.49 890.536,1175.87 931.864,1165.09C956.895,1158.56 966.769,1151.02 974.164,1145.45C978.037,1142.53 981.394,1140.12 985.385,1138.4C1002.86,1130.88 1010.35,1125.74 1013.07,1119.77C1014.19,1117.31 1014.31,1114.81 1014.3,1112.1C1014.29,1108.31 1013.94,1104.21 1014.1,1099.57L1014.01,1098.08C1014,1097.91 1014,1097.74 1014,1097.56C1014.08,1091.41 1011.57,1081.14 1002.66,1073.56C996.281,1068.13 986.751,1064.2 972.952,1063.55C960.763,1062.97 952.982,1060.35 944.706,1058.05C933.748,1055.02 921.786,1052.89 894.147,1058.77C866.82,1064.58 856.345,1076.12 846.721,1085.06C838.731,1092.48 831.129,1098.32 818.263,1099.97C771.811,1105.94 741.466,1139.68 741.083,1197.27C740.764,1245.27 769.02,1273.34 803.805,1291.73C840.506,1311.14 884.419,1320.07 912.821,1329.11C924.091,1332.7 933.093,1336.42 938.774,1340.55C944.198,1344.5 947.074,1349.07 947.704,1353.93C948.345,1358.88 946.71,1364.71 941.003,1371.18C939.656,1372.7 937.602,1374.18 934.712,1375.33C930.576,1376.96 924.007,1378.13 915.544,1378.85C890.423,1381 846.755,1379.89 803.605,1383.92C773.681,1386.73 743.989,1391.97 721.324,1402.85C703.994,1411.16 690.888,1422.82 685.949,1439.67C704.894,1462.69 728.112,1482.05 754.384,1496.55ZM931.3,1062.56C939.778,1062.6 946.786,1065.04 949.317,1067.32L950.831,1069.02L951.729,1070.62L952.258,1072.27L952.448,1074.11L952.24,1075.94L951.695,1077.59L950.782,1079.18L949.252,1080.86C946.699,1083.11 939.668,1085.49 931.19,1085.44C922.712,1085.4 915.704,1082.96 913.173,1080.69L911.659,1078.99L910.761,1077.39L910.232,1075.74L910.042,1073.9L910.25,1072.06L910.795,1070.42L911.708,1068.83L913.238,1067.14C915.791,1064.89 922.822,1062.52 931.3,1062.56ZM943.05,1127.81C950.902,1124.61 958.31,1124.19 961.518,1125.33L963.566,1126.32L965.007,1127.46L966.125,1128.78L967.004,1130.41L967.514,1132.18L967.638,1133.91L967.401,1135.73L966.631,1137.87C965.131,1140.93 959.538,1145.8 951.687,1149C943.836,1152.2 936.427,1152.62 933.22,1151.49L931.172,1150.5L929.731,1149.36L928.612,1148.04L927.733,1146.41L927.224,1144.63L927.1,1142.91L927.336,1141.09L928.107,1138.94C929.607,1135.89 935.199,1131.01 943.05,1127.81Z"/>
                </g>
            </g>
            <g id="typo" transform="matrix(0.995844,0,0,1.05709,-535.86,-934.572)">
                <g transform="matrix(1.05994,0,0,1.05994,-1189.87,94.0927)">
                    <g transform="matrix(255.984,0,0,255.984,2223.38,1127.03)">
                        <path d="M0.176,-0.237L0.024,-0.237C0.023,-0.193 0.031,-0.155 0.048,-0.123C0.065,-0.091 0.087,-0.065 0.116,-0.044C0.144,-0.023 0.177,-0.008 0.214,0.002C0.251,0.011 0.289,0.016 0.328,0.016C0.377,0.016 0.42,0.01 0.457,-0.001C0.494,-0.012 0.525,-0.028 0.55,-0.049C0.575,-0.069 0.593,-0.093 0.606,-0.121C0.619,-0.149 0.625,-0.179 0.625,-0.212C0.625,-0.252 0.616,-0.285 0.6,-0.311C0.583,-0.336 0.562,-0.357 0.539,-0.372C0.516,-0.387 0.492,-0.399 0.469,-0.406C0.445,-0.413 0.426,-0.417 0.413,-0.42C0.368,-0.431 0.332,-0.441 0.305,-0.448C0.277,-0.455 0.255,-0.463 0.24,-0.47C0.224,-0.477 0.213,-0.485 0.208,-0.494C0.203,-0.503 0.2,-0.514 0.2,-0.528C0.2,-0.543 0.203,-0.556 0.21,-0.566C0.217,-0.576 0.225,-0.584 0.236,-0.591C0.246,-0.598 0.257,-0.602 0.27,-0.605C0.283,-0.608 0.295,-0.609 0.308,-0.609C0.327,-0.609 0.345,-0.607 0.362,-0.604C0.378,-0.601 0.392,-0.595 0.405,-0.587C0.418,-0.579 0.428,-0.568 0.436,-0.554C0.443,-0.54 0.448,-0.522 0.449,-0.501L0.601,-0.501C0.601,-0.542 0.593,-0.578 0.578,-0.607C0.562,-0.636 0.541,-0.659 0.514,-0.678C0.487,-0.697 0.457,-0.71 0.423,-0.719C0.388,-0.727 0.352,-0.731 0.315,-0.731C0.283,-0.731 0.251,-0.727 0.219,-0.718C0.187,-0.709 0.158,-0.696 0.133,-0.678C0.108,-0.66 0.087,-0.638 0.072,-0.611C0.056,-0.584 0.048,-0.552 0.048,-0.515C0.048,-0.482 0.054,-0.455 0.067,-0.432C0.079,-0.409 0.095,-0.389 0.115,-0.374C0.135,-0.359 0.158,-0.346 0.183,-0.337C0.208,-0.327 0.234,-0.319 0.261,-0.312C0.287,-0.305 0.313,-0.298 0.338,-0.292C0.363,-0.286 0.386,-0.279 0.406,-0.271C0.426,-0.263 0.442,-0.253 0.455,-0.241C0.467,-0.229 0.473,-0.213 0.473,-0.194C0.473,-0.176 0.468,-0.161 0.459,-0.15C0.45,-0.138 0.438,-0.129 0.424,-0.122C0.41,-0.115 0.395,-0.111 0.379,-0.109C0.363,-0.106 0.348,-0.105 0.334,-0.105C0.313,-0.105 0.293,-0.108 0.274,-0.113C0.255,-0.117 0.238,-0.125 0.224,-0.136C0.209,-0.146 0.198,-0.159 0.189,-0.176C0.18,-0.193 0.176,-0.213 0.176,-0.237Z" style="fill-rule:nonzero;"/>
                    </g>
                    <g transform="matrix(255.984,0,0,255.984,2389.51,1127.03)">
                        <path d="M0.749,-0L0.941,-0.714L0.787,-0.714L0.67,-0.222L0.668,-0.222L0.546,-0.714L0.399,-0.714L0.275,-0.228L0.273,-0.228L0.16,-0.714L0.003,-0.714L0.192,-0L0.351,-0L0.47,-0.486L0.472,-0.486L0.593,-0L0.749,-0Z" style="fill-rule:nonzero;"/>
                    </g>
                    <g transform="matrix(255.984,0,0,255.984,2631.16,1127.03)">
                        <path d="M0.069,-0.714L0.069,-0L0.611,-0L0.611,-0.132L0.226,-0.132L0.226,-0.307L0.572,-0.307L0.572,-0.429L0.226,-0.429L0.226,-0.582L0.603,-0.582L0.603,-0.714L0.069,-0.714Z" style="fill-rule:nonzero;"/>
                    </g>
                    <g transform="matrix(255.984,0,0,255.984,2797.04,1127.03)">
                        <path d="M0.226,-0.378L0.226,-0.592L0.348,-0.592C0.366,-0.592 0.383,-0.591 0.4,-0.588C0.417,-0.585 0.431,-0.58 0.444,-0.573C0.457,-0.565 0.467,-0.554 0.475,-0.54C0.482,-0.526 0.486,-0.508 0.486,-0.485C0.486,-0.462 0.482,-0.444 0.475,-0.43C0.467,-0.416 0.457,-0.405 0.444,-0.398C0.431,-0.39 0.417,-0.385 0.4,-0.382C0.383,-0.379 0.366,-0.378 0.348,-0.378L0.226,-0.378ZM0.069,-0.714L0.069,-0L0.226,-0L0.226,-0.256L0.391,-0.256C0.436,-0.256 0.474,-0.263 0.505,-0.276C0.536,-0.289 0.562,-0.306 0.582,-0.327C0.601,-0.348 0.616,-0.373 0.625,-0.401C0.634,-0.428 0.638,-0.456 0.638,-0.485C0.638,-0.514 0.634,-0.543 0.625,-0.57C0.616,-0.597 0.601,-0.622 0.582,-0.643C0.562,-0.664 0.536,-0.682 0.505,-0.695C0.474,-0.708 0.436,-0.714 0.391,-0.714L0.069,-0.714Z" style="fill-rule:nonzero;"/>
                    </g>
                    <g transform="matrix(255.984,0,0,255.984,2967.78,1127.03)">
                        <path d="M0.254,-0.278L0.254,-0L0.411,-0L0.411,-0.274L0.676,-0.714L0.501,-0.714L0.335,-0.432L0.168,-0.714L-0.008,-0.714L0.254,-0.278Z" style="fill-rule:nonzero;"/>
                    </g>
                </g>
                <g transform="matrix(0.907042,0,0,0.907042,-844.082,346.541)">
                    <g transform="matrix(85.0048,0,0,85.0048,2223.38,1127.03)">
                        <path d="M0.104,-0.235L0.036,-0.235C0.034,-0.191 0.04,-0.153 0.054,-0.122C0.067,-0.091 0.087,-0.065 0.112,-0.045C0.137,-0.025 0.168,-0.01 0.204,-0.001C0.24,0.009 0.279,0.014 0.321,0.014C0.363,0.014 0.399,0.01 0.429,0.003C0.459,-0.005 0.484,-0.015 0.505,-0.028C0.525,-0.04 0.541,-0.054 0.553,-0.069C0.564,-0.084 0.573,-0.099 0.58,-0.115C0.586,-0.13 0.59,-0.144 0.592,-0.157C0.593,-0.17 0.594,-0.181 0.594,-0.189C0.594,-0.218 0.589,-0.243 0.58,-0.264C0.57,-0.285 0.557,-0.302 0.54,-0.317C0.523,-0.331 0.503,-0.343 0.481,-0.353C0.458,-0.362 0.434,-0.37 0.409,-0.377L0.235,-0.42C0.22,-0.423 0.206,-0.428 0.194,-0.433C0.181,-0.438 0.169,-0.445 0.159,-0.454C0.149,-0.463 0.141,-0.473 0.136,-0.486C0.13,-0.498 0.127,-0.512 0.127,-0.529C0.127,-0.556 0.132,-0.578 0.142,-0.596C0.152,-0.614 0.165,-0.628 0.182,-0.64C0.198,-0.651 0.217,-0.659 0.239,-0.664C0.26,-0.669 0.283,-0.671 0.306,-0.671C0.331,-0.671 0.356,-0.668 0.379,-0.661C0.402,-0.654 0.422,-0.643 0.44,-0.63C0.457,-0.616 0.472,-0.599 0.483,-0.579C0.494,-0.558 0.5,-0.534 0.501,-0.507L0.569,-0.507C0.569,-0.544 0.562,-0.576 0.548,-0.604C0.533,-0.631 0.514,-0.654 0.49,-0.673C0.466,-0.692 0.438,-0.706 0.406,-0.715C0.374,-0.724 0.34,-0.729 0.305,-0.729C0.255,-0.729 0.214,-0.722 0.182,-0.708C0.15,-0.693 0.125,-0.676 0.107,-0.655C0.088,-0.634 0.076,-0.612 0.069,-0.589C0.062,-0.566 0.059,-0.545 0.059,-0.528C0.059,-0.5 0.064,-0.476 0.073,-0.457C0.082,-0.438 0.093,-0.421 0.108,-0.408C0.123,-0.395 0.14,-0.384 0.16,-0.376C0.179,-0.368 0.199,-0.361 0.22,-0.356L0.379,-0.317C0.396,-0.313 0.413,-0.308 0.43,-0.302C0.447,-0.295 0.463,-0.287 0.478,-0.277C0.492,-0.267 0.503,-0.255 0.513,-0.24C0.522,-0.225 0.526,-0.208 0.526,-0.188C0.526,-0.162 0.52,-0.14 0.507,-0.122C0.494,-0.103 0.478,-0.088 0.46,-0.077C0.44,-0.065 0.42,-0.056 0.398,-0.051C0.376,-0.046 0.356,-0.043 0.337,-0.043C0.304,-0.043 0.274,-0.046 0.245,-0.053C0.216,-0.059 0.192,-0.069 0.171,-0.084C0.15,-0.099 0.133,-0.118 0.121,-0.143C0.109,-0.168 0.103,-0.198 0.104,-0.235Z" style="fill-rule:nonzero;"/>
                    </g>
                    <g transform="matrix(85.0048,0,0,85.0048,2276.93,1127.03)">
                        <path d="M0.278,-0.478C0.308,-0.478 0.334,-0.472 0.357,-0.459C0.38,-0.446 0.399,-0.43 0.414,-0.409C0.429,-0.388 0.44,-0.365 0.448,-0.339C0.455,-0.312 0.459,-0.285 0.459,-0.258C0.459,-0.231 0.455,-0.204 0.448,-0.178C0.44,-0.151 0.429,-0.128 0.414,-0.107C0.399,-0.086 0.38,-0.07 0.357,-0.057C0.334,-0.044 0.308,-0.038 0.278,-0.038C0.248,-0.038 0.222,-0.044 0.199,-0.057C0.176,-0.07 0.158,-0.086 0.143,-0.107C0.128,-0.128 0.116,-0.151 0.109,-0.178C0.101,-0.204 0.097,-0.231 0.097,-0.258C0.097,-0.285 0.101,-0.312 0.109,-0.339C0.116,-0.365 0.128,-0.388 0.143,-0.409C0.158,-0.43 0.176,-0.446 0.199,-0.459C0.222,-0.472 0.248,-0.478 0.278,-0.478ZM0.278,-0.531C0.239,-0.531 0.204,-0.524 0.174,-0.509C0.143,-0.494 0.118,-0.475 0.097,-0.45C0.076,-0.425 0.061,-0.397 0.05,-0.364C0.039,-0.331 0.034,-0.295 0.034,-0.258C0.034,-0.221 0.039,-0.186 0.05,-0.153C0.061,-0.12 0.076,-0.091 0.097,-0.066C0.118,-0.041 0.143,-0.022 0.174,-0.008C0.204,0.007 0.239,0.014 0.278,0.014C0.317,0.014 0.352,0.007 0.383,-0.008C0.413,-0.022 0.438,-0.041 0.459,-0.066C0.48,-0.091 0.495,-0.12 0.506,-0.153C0.517,-0.186 0.522,-0.221 0.522,-0.258C0.522,-0.295 0.517,-0.331 0.506,-0.364C0.495,-0.397 0.48,-0.425 0.459,-0.45C0.438,-0.475 0.413,-0.494 0.383,-0.509C0.352,-0.524 0.317,-0.531 0.278,-0.531Z" style="fill-rule:nonzero;"/>
                    </g>
                    <g transform="matrix(85.0048,0,0,85.0048,2324.19,1127.03)">
                        <path d="M0.259,-0.463L0.259,-0.516L0.157,-0.516L0.157,-0.561C0.157,-0.575 0.157,-0.588 0.158,-0.6C0.159,-0.612 0.161,-0.623 0.166,-0.632C0.17,-0.641 0.177,-0.648 0.186,-0.653C0.195,-0.658 0.209,-0.661 0.226,-0.661C0.233,-0.661 0.241,-0.661 0.248,-0.66C0.255,-0.659 0.263,-0.657 0.272,-0.656L0.272,-0.71C0.262,-0.711 0.253,-0.712 0.245,-0.713C0.237,-0.714 0.228,-0.714 0.219,-0.714C0.194,-0.714 0.173,-0.71 0.157,-0.703C0.14,-0.696 0.127,-0.685 0.118,-0.672C0.109,-0.659 0.102,-0.643 0.099,-0.624C0.096,-0.605 0.094,-0.585 0.094,-0.563L0.094,-0.516L0.006,-0.516L0.006,-0.463L0.094,-0.463L0.094,-0L0.157,-0L0.157,-0.463L0.259,-0.463Z" style="fill-rule:nonzero;"/>
                    </g>
                    <g transform="matrix(85.0048,0,0,85.0048,2346.21,1127.03)">
                        <path d="M0.16,-0.516L0.16,-0.671L0.097,-0.671L0.097,-0.516L0.007,-0.516L0.007,-0.463L0.097,-0.463L0.097,-0.11C0.096,-0.066 0.104,-0.036 0.121,-0.02C0.138,-0.003 0.167,0.005 0.209,0.005C0.218,0.005 0.228,0.005 0.237,0.004C0.246,0.003 0.256,0.003 0.265,0.003L0.265,-0.05C0.247,-0.048 0.229,-0.047 0.211,-0.047C0.188,-0.048 0.174,-0.055 0.169,-0.067C0.163,-0.078 0.16,-0.094 0.16,-0.115L0.16,-0.463L0.265,-0.463L0.265,-0.516L0.16,-0.516Z" style="fill-rule:nonzero;"/>
                    </g>
                    <g transform="matrix(85.0048,0,0,85.0048,2371.37,1127.03)">
                        <path d="M0.008,-0.516L0.174,-0L0.243,-0L0.369,-0.434L0.371,-0.434L0.498,-0L0.567,-0L0.733,-0.516L0.666,-0.516L0.534,-0.074L0.532,-0.074L0.406,-0.516L0.335,-0.516L0.209,-0.074L0.207,-0.074L0.075,-0.516L0.008,-0.516Z" style="fill-rule:nonzero;"/>
                    </g>
                    <g transform="matrix(85.0048,0,0,85.0048,2434.36,1127.03)">
                        <path d="M0.054,-0.358L0.117,-0.358C0.118,-0.4 0.132,-0.431 0.157,-0.45C0.182,-0.468 0.215,-0.478 0.255,-0.478C0.274,-0.478 0.291,-0.476 0.308,-0.474C0.324,-0.471 0.338,-0.465 0.351,-0.457C0.363,-0.449 0.373,-0.438 0.38,-0.425C0.387,-0.411 0.39,-0.393 0.39,-0.372C0.39,-0.358 0.388,-0.347 0.385,-0.338C0.381,-0.329 0.376,-0.323 0.369,-0.318C0.362,-0.313 0.354,-0.309 0.344,-0.307C0.334,-0.305 0.322,-0.303 0.309,-0.302C0.275,-0.298 0.242,-0.294 0.209,-0.29C0.175,-0.285 0.146,-0.278 0.12,-0.267C0.093,-0.256 0.072,-0.241 0.056,-0.221C0.04,-0.2 0.032,-0.172 0.032,-0.136C0.032,-0.11 0.037,-0.088 0.046,-0.069C0.055,-0.05 0.067,-0.034 0.083,-0.022C0.098,-0.009 0.117,-0 0.138,0.006C0.159,0.011 0.181,0.014 0.205,0.014C0.23,0.014 0.252,0.012 0.271,0.007C0.289,0.002 0.305,-0.004 0.32,-0.013C0.334,-0.022 0.347,-0.033 0.359,-0.046C0.37,-0.058 0.382,-0.073 0.393,-0.09L0.395,-0.09C0.395,-0.077 0.396,-0.065 0.398,-0.054C0.399,-0.043 0.403,-0.033 0.408,-0.025C0.413,-0.017 0.421,-0.011 0.431,-0.007C0.44,-0.002 0.453,-0 0.469,-0C0.478,-0 0.485,-0 0.491,-0.001C0.496,-0.002 0.503,-0.003 0.51,-0.004L0.51,-0.057C0.504,-0.054 0.497,-0.053 0.49,-0.053C0.465,-0.053 0.453,-0.066 0.453,-0.091L0.453,-0.365C0.453,-0.4 0.447,-0.428 0.436,-0.45C0.425,-0.471 0.41,-0.488 0.392,-0.5C0.374,-0.512 0.354,-0.52 0.331,-0.525C0.308,-0.529 0.286,-0.531 0.263,-0.531C0.233,-0.531 0.206,-0.528 0.181,-0.521C0.156,-0.514 0.135,-0.504 0.117,-0.49C0.098,-0.476 0.084,-0.458 0.073,-0.436C0.062,-0.414 0.056,-0.388 0.054,-0.358ZM0.39,-0.282L0.39,-0.2C0.39,-0.175 0.385,-0.152 0.376,-0.132C0.366,-0.112 0.353,-0.095 0.337,-0.081C0.32,-0.067 0.301,-0.056 0.279,-0.049C0.257,-0.042 0.234,-0.038 0.21,-0.038C0.195,-0.038 0.181,-0.04 0.167,-0.045C0.153,-0.05 0.141,-0.057 0.13,-0.066C0.119,-0.075 0.111,-0.085 0.105,-0.098C0.098,-0.11 0.095,-0.124 0.095,-0.14C0.095,-0.165 0.102,-0.185 0.118,-0.199C0.133,-0.212 0.152,-0.223 0.175,-0.23C0.198,-0.237 0.224,-0.243 0.253,-0.247C0.281,-0.25 0.308,-0.254 0.335,-0.259C0.344,-0.26 0.354,-0.263 0.365,-0.266C0.376,-0.269 0.384,-0.275 0.388,-0.282L0.39,-0.282Z" style="fill-rule:nonzero;"/>
                    </g>
                    <g transform="matrix(85.0048,0,0,85.0048,2478.48,1127.03)">
                        <path d="M0.06,-0.516L0.06,-0L0.123,-0L0.123,-0.275C0.123,-0.302 0.128,-0.328 0.137,-0.351C0.146,-0.374 0.16,-0.393 0.177,-0.41C0.194,-0.427 0.214,-0.44 0.237,-0.449C0.26,-0.458 0.286,-0.461 0.315,-0.46L0.315,-0.523C0.268,-0.525 0.228,-0.515 0.195,-0.492C0.161,-0.469 0.136,-0.437 0.12,-0.395L0.118,-0.395L0.118,-0.516L0.06,-0.516Z" style="fill-rule:nonzero;"/>
                    </g>
                    <g transform="matrix(85.0048,0,0,85.0048,2503.72,1127.03)">
                        <path d="M0.431,-0.294L0.097,-0.294C0.1,-0.317 0.105,-0.34 0.114,-0.363C0.122,-0.385 0.133,-0.405 0.147,-0.422C0.161,-0.439 0.178,-0.452 0.198,-0.463C0.218,-0.473 0.241,-0.478 0.267,-0.478C0.292,-0.478 0.315,-0.473 0.335,-0.463C0.355,-0.452 0.372,-0.439 0.386,-0.422C0.4,-0.405 0.411,-0.385 0.419,-0.363C0.426,-0.341 0.43,-0.318 0.431,-0.294ZM0.097,-0.241L0.494,-0.241C0.495,-0.277 0.492,-0.313 0.484,-0.348C0.476,-0.383 0.463,-0.413 0.445,-0.441C0.426,-0.467 0.402,-0.489 0.373,-0.506C0.344,-0.523 0.308,-0.531 0.267,-0.531C0.226,-0.531 0.191,-0.523 0.162,-0.508C0.132,-0.492 0.108,-0.471 0.089,-0.446C0.07,-0.42 0.056,-0.391 0.048,-0.358C0.039,-0.325 0.034,-0.292 0.034,-0.258C0.034,-0.221 0.039,-0.187 0.048,-0.154C0.056,-0.121 0.07,-0.092 0.089,-0.067C0.108,-0.042 0.132,-0.022 0.162,-0.008C0.191,0.007 0.226,0.014 0.267,0.014C0.332,0.014 0.383,-0.002 0.419,-0.034C0.454,-0.066 0.479,-0.111 0.492,-0.17L0.429,-0.17C0.419,-0.13 0.401,-0.098 0.375,-0.074C0.349,-0.05 0.313,-0.038 0.267,-0.038C0.237,-0.038 0.211,-0.044 0.19,-0.057C0.169,-0.07 0.151,-0.086 0.137,-0.105C0.123,-0.124 0.113,-0.146 0.107,-0.171C0.1,-0.195 0.097,-0.218 0.097,-0.241Z" style="fill-rule:nonzero;"/>
                    </g>
                    <g transform="matrix(85.0048,0,0,85.0048,2571.47,1127.03)">
                        <path d="M0.072,-0.714L0.072,-0L0.57,-0L0.57,-0.058L0.14,-0.058L0.14,-0.34L0.538,-0.34L0.538,-0.398L0.14,-0.398L0.14,-0.656L0.565,-0.656L0.565,-0.714L0.072,-0.714Z" style="fill-rule:nonzero;"/>
                    </g>
                    <g transform="matrix(85.0048,0,0,85.0048,2621.88,1127.03)">
                        <path d="M0.059,-0.516L0.059,-0L0.122,-0L0.122,-0.301C0.123,-0.326 0.127,-0.35 0.135,-0.372C0.142,-0.393 0.153,-0.412 0.167,-0.428C0.18,-0.443 0.197,-0.456 0.217,-0.465C0.236,-0.474 0.259,-0.478 0.284,-0.478C0.309,-0.478 0.331,-0.474 0.348,-0.466C0.365,-0.458 0.378,-0.447 0.388,-0.433C0.398,-0.419 0.405,-0.403 0.409,-0.384C0.413,-0.365 0.415,-0.344 0.415,-0.322L0.415,-0L0.478,-0L0.478,-0.332C0.478,-0.363 0.475,-0.39 0.469,-0.415C0.463,-0.44 0.453,-0.46 0.438,-0.478C0.423,-0.495 0.404,-0.508 0.38,-0.517C0.355,-0.526 0.325,-0.531 0.289,-0.531C0.252,-0.531 0.219,-0.522 0.188,-0.503C0.157,-0.484 0.136,-0.458 0.124,-0.427L0.122,-0.427L0.122,-0.516L0.059,-0.516Z" style="fill-rule:nonzero;"/>
                    </g>
                    <g transform="matrix(85.0048,0,0,85.0048,2667.53,1127.03)">
                        <path d="M0.496,-0.042L0.496,-0.516L0.433,-0.516L0.433,-0.427L0.431,-0.427C0.425,-0.441 0.417,-0.454 0.406,-0.467C0.395,-0.48 0.382,-0.491 0.368,-0.501C0.354,-0.51 0.339,-0.518 0.322,-0.523C0.305,-0.528 0.286,-0.531 0.267,-0.531C0.23,-0.531 0.197,-0.524 0.168,-0.511C0.138,-0.497 0.114,-0.478 0.095,-0.455C0.075,-0.431 0.06,-0.403 0.05,-0.372C0.039,-0.34 0.034,-0.306 0.034,-0.271C0.034,-0.234 0.038,-0.2 0.047,-0.168C0.056,-0.135 0.069,-0.107 0.089,-0.083C0.108,-0.059 0.132,-0.04 0.161,-0.027C0.19,-0.013 0.226,-0.006 0.267,-0.006C0.305,-0.006 0.338,-0.016 0.367,-0.035C0.395,-0.054 0.416,-0.08 0.431,-0.112L0.433,-0.112L0.433,-0.042C0.433,0.021 0.42,0.069 0.394,0.102C0.368,0.135 0.326,0.152 0.267,0.152C0.25,0.152 0.233,0.15 0.216,0.147C0.199,0.143 0.184,0.137 0.171,0.129C0.157,0.121 0.145,0.111 0.136,0.098C0.126,0.085 0.119,0.068 0.116,0.049L0.053,0.049C0.055,0.076 0.063,0.1 0.076,0.12C0.089,0.139 0.105,0.155 0.125,0.168C0.144,0.181 0.166,0.19 0.191,0.196C0.216,0.202 0.241,0.205 0.267,0.205C0.309,0.205 0.345,0.199 0.374,0.188C0.403,0.177 0.426,0.16 0.444,0.139C0.462,0.118 0.475,0.092 0.484,0.061C0.492,0.03 0.496,-0.004 0.496,-0.042ZM0.267,-0.059C0.238,-0.059 0.212,-0.065 0.191,-0.077C0.17,-0.088 0.152,-0.103 0.138,-0.123C0.124,-0.141 0.114,-0.163 0.107,-0.188C0.1,-0.213 0.097,-0.238 0.097,-0.264C0.097,-0.291 0.1,-0.317 0.107,-0.343C0.113,-0.368 0.123,-0.391 0.137,-0.411C0.151,-0.431 0.169,-0.447 0.19,-0.46C0.211,-0.472 0.237,-0.478 0.267,-0.478C0.297,-0.478 0.323,-0.472 0.344,-0.459C0.365,-0.446 0.382,-0.43 0.395,-0.409C0.408,-0.388 0.418,-0.365 0.424,-0.34C0.43,-0.315 0.433,-0.289 0.433,-0.264C0.433,-0.238 0.43,-0.213 0.423,-0.188C0.416,-0.163 0.405,-0.141 0.391,-0.123C0.377,-0.103 0.36,-0.088 0.339,-0.077C0.318,-0.065 0.294,-0.059 0.267,-0.059Z" style="fill-rule:nonzero;"/>
                    </g>
                    <g transform="matrix(85.0048,0,0,85.0048,2714.79,1127.03)">
                        <path d="M0.061,-0.714L0.061,-0.613L0.124,-0.613L0.124,-0.714L0.061,-0.714ZM0.061,-0.516L0.061,-0L0.124,-0L0.124,-0.516L0.061,-0.516Z" style="fill-rule:nonzero;"/>
                    </g>
                    <g transform="matrix(85.0048,0,0,85.0048,2730.52,1127.03)">
                        <path d="M0.059,-0.516L0.059,-0L0.122,-0L0.122,-0.301C0.123,-0.326 0.127,-0.35 0.135,-0.372C0.142,-0.393 0.153,-0.412 0.167,-0.428C0.18,-0.443 0.197,-0.456 0.217,-0.465C0.236,-0.474 0.259,-0.478 0.284,-0.478C0.309,-0.478 0.331,-0.474 0.348,-0.466C0.365,-0.458 0.378,-0.447 0.388,-0.433C0.398,-0.419 0.405,-0.403 0.409,-0.384C0.413,-0.365 0.415,-0.344 0.415,-0.322L0.415,-0L0.478,-0L0.478,-0.332C0.478,-0.363 0.475,-0.39 0.469,-0.415C0.463,-0.44 0.453,-0.46 0.438,-0.478C0.423,-0.495 0.404,-0.508 0.38,-0.517C0.355,-0.526 0.325,-0.531 0.289,-0.531C0.252,-0.531 0.219,-0.522 0.188,-0.503C0.157,-0.484 0.136,-0.458 0.124,-0.427L0.122,-0.427L0.122,-0.516L0.059,-0.516Z" style="fill-rule:nonzero;"/>
                    </g>
                    <g transform="matrix(85.0048,0,0,85.0048,2776.16,1127.03)">
                        <path d="M0.431,-0.294L0.097,-0.294C0.1,-0.317 0.105,-0.34 0.114,-0.363C0.122,-0.385 0.133,-0.405 0.147,-0.422C0.161,-0.439 0.178,-0.452 0.198,-0.463C0.218,-0.473 0.241,-0.478 0.267,-0.478C0.292,-0.478 0.315,-0.473 0.335,-0.463C0.355,-0.452 0.372,-0.439 0.386,-0.422C0.4,-0.405 0.411,-0.385 0.419,-0.363C0.426,-0.341 0.43,-0.318 0.431,-0.294ZM0.097,-0.241L0.494,-0.241C0.495,-0.277 0.492,-0.313 0.484,-0.348C0.476,-0.383 0.463,-0.413 0.445,-0.441C0.426,-0.467 0.402,-0.489 0.373,-0.506C0.344,-0.523 0.308,-0.531 0.267,-0.531C0.226,-0.531 0.191,-0.523 0.162,-0.508C0.132,-0.492 0.108,-0.471 0.089,-0.446C0.07,-0.42 0.056,-0.391 0.048,-0.358C0.039,-0.325 0.034,-0.292 0.034,-0.258C0.034,-0.221 0.039,-0.187 0.048,-0.154C0.056,-0.121 0.07,-0.092 0.089,-0.067C0.108,-0.042 0.132,-0.022 0.162,-0.008C0.191,0.007 0.226,0.014 0.267,0.014C0.332,0.014 0.383,-0.002 0.419,-0.034C0.454,-0.066 0.479,-0.111 0.492,-0.17L0.429,-0.17C0.419,-0.13 0.401,-0.098 0.375,-0.074C0.349,-0.05 0.313,-0.038 0.267,-0.038C0.237,-0.038 0.211,-0.044 0.19,-0.057C0.169,-0.07 0.151,-0.086 0.137,-0.105C0.123,-0.124 0.113,-0.146 0.107,-0.171C0.1,-0.195 0.097,-0.218 0.097,-0.241Z" style="fill-rule:nonzero;"/>
                    </g>
                    <g transform="matrix(85.0048,0,0,85.0048,2820.28,1127.03)">
                        <path d="M0.431,-0.294L0.097,-0.294C0.1,-0.317 0.105,-0.34 0.114,-0.363C0.122,-0.385 0.133,-0.405 0.147,-0.422C0.161,-0.439 0.178,-0.452 0.198,-0.463C0.218,-0.473 0.241,-0.478 0.267,-0.478C0.292,-0.478 0.315,-0.473 0.335,-0.463C0.355,-0.452 0.372,-0.439 0.386,-0.422C0.4,-0.405 0.411,-0.385 0.419,-0.363C0.426,-0.341 0.43,-0.318 0.431,-0.294ZM0.097,-0.241L0.494,-0.241C0.495,-0.277 0.492,-0.313 0.484,-0.348C0.476,-0.383 0.463,-0.413 0.445,-0.441C0.426,-0.467 0.402,-0.489 0.373,-0.506C0.344,-0.523 0.308,-0.531 0.267,-0.531C0.226,-0.531 0.191,-0.523 0.162,-0.508C0.132,-0.492 0.108,-0.471 0.089,-0.446C0.07,-0.42 0.056,-0.391 0.048,-0.358C0.039,-0.325 0.034,-0.292 0.034,-0.258C0.034,-0.221 0.039,-0.187 0.048,-0.154C0.056,-0.121 0.07,-0.092 0.089,-0.067C0.108,-0.042 0.132,-0.022 0.162,-0.008C0.191,0.007 0.226,0.014 0.267,0.014C0.332,0.014 0.383,-0.002 0.419,-0.034C0.454,-0.066 0.479,-0.111 0.492,-0.17L0.429,-0.17C0.419,-0.13 0.401,-0.098 0.375,-0.074C0.349,-0.05 0.313,-0.038 0.267,-0.038C0.237,-0.038 0.211,-0.044 0.19,-0.057C0.169,-0.07 0.151,-0.086 0.137,-0.105C0.123,-0.124 0.113,-0.146 0.107,-0.171C0.1,-0.195 0.097,-0.218 0.097,-0.241Z" style="fill-rule:nonzero;"/>
                    </g>
                    <g transform="matrix(85.0048,0,0,85.0048,2864.4,1127.03)">
                        <path d="M0.06,-0.516L0.06,-0L0.123,-0L0.123,-0.275C0.123,-0.302 0.128,-0.328 0.137,-0.351C0.146,-0.374 0.16,-0.393 0.177,-0.41C0.194,-0.427 0.214,-0.44 0.237,-0.449C0.26,-0.458 0.286,-0.461 0.315,-0.46L0.315,-0.523C0.268,-0.525 0.228,-0.515 0.195,-0.492C0.161,-0.469 0.136,-0.437 0.12,-0.395L0.118,-0.395L0.118,-0.516L0.06,-0.516Z" style="fill-rule:nonzero;"/>
                    </g>
                    <g transform="matrix(85.0048,0,0,85.0048,2891.17,1127.03)">
                        <path d="M0.061,-0.714L0.061,-0.613L0.124,-0.613L0.124,-0.714L0.061,-0.714ZM0.061,-0.516L0.061,-0L0.124,-0L0.124,-0.516L0.061,-0.516Z" style="fill-rule:nonzero;"/>
                    </g>
                    <g transform="matrix(85.0048,0,0,85.0048,2906.9,1127.03)">
                        <path d="M0.059,-0.516L0.059,-0L0.122,-0L0.122,-0.301C0.123,-0.326 0.127,-0.35 0.135,-0.372C0.142,-0.393 0.153,-0.412 0.167,-0.428C0.18,-0.443 0.197,-0.456 0.217,-0.465C0.236,-0.474 0.259,-0.478 0.284,-0.478C0.309,-0.478 0.331,-0.474 0.348,-0.466C0.365,-0.458 0.378,-0.447 0.388,-0.433C0.398,-0.419 0.405,-0.403 0.409,-0.384C0.413,-0.365 0.415,-0.344 0.415,-0.322L0.415,-0L0.478,-0L0.478,-0.332C0.478,-0.363 0.475,-0.39 0.469,-0.415C0.463,-0.44 0.453,-0.46 0.438,-0.478C0.423,-0.495 0.404,-0.508 0.38,-0.517C0.355,-0.526 0.325,-0.531 0.289,-0.531C0.252,-0.531 0.219,-0.522 0.188,-0.503C0.157,-0.484 0.136,-0.458 0.124,-0.427L0.122,-0.427L0.122,-0.516L0.059,-0.516Z" style="fill-rule:nonzero;"/>
                    </g>
                    <g transform="matrix(85.0048,0,0,85.0048,2952.55,1127.03)">
                        <path d="M0.496,-0.042L0.496,-0.516L0.433,-0.516L0.433,-0.427L0.431,-0.427C0.425,-0.441 0.417,-0.454 0.406,-0.467C0.395,-0.48 0.382,-0.491 0.368,-0.501C0.354,-0.51 0.339,-0.518 0.322,-0.523C0.305,-0.528 0.286,-0.531 0.267,-0.531C0.23,-0.531 0.197,-0.524 0.168,-0.511C0.138,-0.497 0.114,-0.478 0.095,-0.455C0.075,-0.431 0.06,-0.403 0.05,-0.372C0.039,-0.34 0.034,-0.306 0.034,-0.271C0.034,-0.234 0.038,-0.2 0.047,-0.168C0.056,-0.135 0.069,-0.107 0.089,-0.083C0.108,-0.059 0.132,-0.04 0.161,-0.027C0.19,-0.013 0.226,-0.006 0.267,-0.006C0.305,-0.006 0.338,-0.016 0.367,-0.035C0.395,-0.054 0.416,-0.08 0.431,-0.112L0.433,-0.112L0.433,-0.042C0.433,0.021 0.42,0.069 0.394,0.102C0.368,0.135 0.326,0.152 0.267,0.152C0.25,0.152 0.233,0.15 0.216,0.147C0.199,0.143 0.184,0.137 0.171,0.129C0.157,0.121 0.145,0.111 0.136,0.098C0.126,0.085 0.119,0.068 0.116,0.049L0.053,0.049C0.055,0.076 0.063,0.1 0.076,0.12C0.089,0.139 0.105,0.155 0.125,0.168C0.144,0.181 0.166,0.19 0.191,0.196C0.216,0.202 0.241,0.205 0.267,0.205C0.309,0.205 0.345,0.199 0.374,0.188C0.403,0.177 0.426,0.16 0.444,0.139C0.462,0.118 0.475,0.092 0.484,0.061C0.492,0.03 0.496,-0.004 0.496,-0.042ZM0.267,-0.059C0.238,-0.059 0.212,-0.065 0.191,-0.077C0.17,-0.088 0.152,-0.103 0.138,-0.123C0.124,-0.141 0.114,-0.163 0.107,-0.188C0.1,-0.213 0.097,-0.238 0.097,-0.264C0.097,-0.291 0.1,-0.317 0.107,-0.343C0.113,-0.368 0.123,-0.391 0.137,-0.411C0.151,-0.431 0.169,-0.447 0.19,-0.46C0.211,-0.472 0.237,-0.478 0.267,-0.478C0.297,-0.478 0.323,-0.472 0.344,-0.459C0.365,-0.446 0.382,-0.43 0.395,-0.409C0.408,-0.388 0.418,-0.365 0.424,-0.34C0.43,-0.315 0.433,-0.289 0.433,-0.264C0.433,-0.238 0.43,-0.213 0.423,-0.188C0.416,-0.163 0.405,-0.141 0.391,-0.123C0.377,-0.103 0.36,-0.088 0.339,-0.077C0.318,-0.065 0.294,-0.059 0.267,-0.059Z" style="fill-rule:nonzero;"/>
                    </g>
                    <g transform="matrix(85.0048,0,0,85.0048,3023.44,1127.03)">
                        <path d="M0.14,-0.364L0.14,-0.656L0.374,-0.656C0.421,-0.656 0.46,-0.644 0.489,-0.62C0.518,-0.596 0.533,-0.559 0.533,-0.51C0.533,-0.461 0.518,-0.424 0.489,-0.4C0.46,-0.376 0.421,-0.364 0.374,-0.364L0.14,-0.364ZM0.072,-0.714L0.072,-0L0.14,-0L0.14,-0.306L0.389,-0.306C0.421,-0.306 0.45,-0.311 0.476,-0.32C0.502,-0.329 0.524,-0.342 0.543,-0.36C0.562,-0.377 0.576,-0.399 0.586,-0.424C0.596,-0.449 0.601,-0.478 0.601,-0.51C0.601,-0.542 0.596,-0.571 0.586,-0.596C0.576,-0.621 0.562,-0.643 0.543,-0.661C0.524,-0.678 0.502,-0.692 0.476,-0.701C0.45,-0.709 0.421,-0.714 0.389,-0.714L0.072,-0.714Z" style="fill-rule:nonzero;"/>
                    </g>
                    <g transform="matrix(85.0048,0,0,85.0048,3076.99,1127.03)">
                        <path d="M0.002,-0.516L0.208,-0.002L0.186,0.056C0.181,0.068 0.176,0.079 0.171,0.089C0.166,0.099 0.161,0.108 0.154,0.115C0.147,0.122 0.14,0.127 0.131,0.131C0.122,0.135 0.11,0.137 0.096,0.137C0.089,0.137 0.082,0.137 0.075,0.136C0.068,0.135 0.06,0.133 0.053,0.132L0.053,0.185C0.058,0.187 0.065,0.188 0.072,0.189C0.079,0.189 0.088,0.189 0.101,0.19C0.121,0.19 0.137,0.188 0.151,0.185C0.164,0.181 0.175,0.175 0.185,0.167C0.194,0.158 0.203,0.147 0.211,0.133C0.219,0.118 0.228,0.1 0.237,0.078L0.461,-0.516L0.398,-0.516L0.239,-0.076L0.069,-0.516L0.002,-0.516Z" style="fill-rule:nonzero;"/>
                    </g>
                    <g transform="matrix(85.0048,0,0,85.0048,3116.35,1127.03)">
                        <path d="M0.16,-0.516L0.16,-0.671L0.097,-0.671L0.097,-0.516L0.007,-0.516L0.007,-0.463L0.097,-0.463L0.097,-0.11C0.096,-0.066 0.104,-0.036 0.121,-0.02C0.138,-0.003 0.167,0.005 0.209,0.005C0.218,0.005 0.228,0.005 0.237,0.004C0.246,0.003 0.256,0.003 0.265,0.003L0.265,-0.05C0.247,-0.048 0.229,-0.047 0.211,-0.047C0.188,-0.048 0.174,-0.055 0.169,-0.067C0.163,-0.078 0.16,-0.094 0.16,-0.115L0.16,-0.463L0.265,-0.463L0.265,-0.516L0.16,-0.516Z" style="fill-rule:nonzero;"/>
                    </g>
                    <g transform="matrix(85.0048,0,0,85.0048,3141.51,1127.03)">
                        <path d="M0.059,-0.714L0.059,-0L0.122,-0L0.122,-0.301C0.123,-0.326 0.127,-0.35 0.135,-0.372C0.142,-0.393 0.153,-0.412 0.167,-0.428C0.18,-0.443 0.197,-0.456 0.217,-0.465C0.236,-0.474 0.259,-0.478 0.284,-0.478C0.309,-0.478 0.331,-0.474 0.348,-0.466C0.365,-0.458 0.378,-0.447 0.388,-0.433C0.398,-0.419 0.405,-0.403 0.409,-0.384C0.413,-0.365 0.415,-0.344 0.415,-0.322L0.415,-0L0.478,-0L0.478,-0.332C0.478,-0.363 0.475,-0.39 0.469,-0.415C0.463,-0.44 0.453,-0.46 0.438,-0.478C0.423,-0.495 0.404,-0.508 0.38,-0.517C0.355,-0.526 0.325,-0.531 0.289,-0.531C0.252,-0.531 0.219,-0.522 0.188,-0.503C0.157,-0.484 0.136,-0.458 0.124,-0.427L0.122,-0.427L0.122,-0.714L0.059,-0.714Z" style="fill-rule:nonzero;"/>
                    </g>
                    <g transform="matrix(85.0048,0,0,85.0048,3187.16,1127.03)">
                        <path d="M0.278,-0.478C0.308,-0.478 0.334,-0.472 0.357,-0.459C0.38,-0.446 0.399,-0.43 0.414,-0.409C0.429,-0.388 0.44,-0.365 0.448,-0.339C0.455,-0.312 0.459,-0.285 0.459,-0.258C0.459,-0.231 0.455,-0.204 0.448,-0.178C0.44,-0.151 0.429,-0.128 0.414,-0.107C0.399,-0.086 0.38,-0.07 0.357,-0.057C0.334,-0.044 0.308,-0.038 0.278,-0.038C0.248,-0.038 0.222,-0.044 0.199,-0.057C0.176,-0.07 0.158,-0.086 0.143,-0.107C0.128,-0.128 0.116,-0.151 0.109,-0.178C0.101,-0.204 0.097,-0.231 0.097,-0.258C0.097,-0.285 0.101,-0.312 0.109,-0.339C0.116,-0.365 0.128,-0.388 0.143,-0.409C0.158,-0.43 0.176,-0.446 0.199,-0.459C0.222,-0.472 0.248,-0.478 0.278,-0.478ZM0.278,-0.531C0.239,-0.531 0.204,-0.524 0.174,-0.509C0.143,-0.494 0.118,-0.475 0.097,-0.45C0.076,-0.425 0.061,-0.397 0.05,-0.364C0.039,-0.331 0.034,-0.295 0.034,-0.258C0.034,-0.221 0.039,-0.186 0.05,-0.153C0.061,-0.12 0.076,-0.091 0.097,-0.066C0.118,-0.041 0.143,-0.022 0.174,-0.008C0.204,0.007 0.239,0.014 0.278,0.014C0.317,0.014 0.352,0.007 0.383,-0.008C0.413,-0.022 0.438,-0.041 0.459,-0.066C0.48,-0.091 0.495,-0.12 0.506,-0.153C0.517,-0.186 0.522,-0.221 0.522,-0.258C0.522,-0.295 0.517,-0.331 0.506,-0.364C0.495,-0.397 0.48,-0.425 0.459,-0.45C0.438,-0.475 0.413,-0.494 0.383,-0.509C0.352,-0.524 0.317,-0.531 0.278,-0.531Z" style="fill-rule:nonzero;"/>
                    </g>
                    <g transform="matrix(85.0048,0,0,85.0048,3234.42,1127.03)">
                        <path d="M0.059,-0.516L0.059,-0L0.122,-0L0.122,-0.301C0.123,-0.326 0.127,-0.35 0.135,-0.372C0.142,-0.393 0.153,-0.412 0.167,-0.428C0.18,-0.443 0.197,-0.456 0.217,-0.465C0.236,-0.474 0.259,-0.478 0.284,-0.478C0.309,-0.478 0.331,-0.474 0.348,-0.466C0.365,-0.458 0.378,-0.447 0.388,-0.433C0.398,-0.419 0.405,-0.403 0.409,-0.384C0.413,-0.365 0.415,-0.344 0.415,-0.322L0.415,-0L0.478,-0L0.478,-0.332C0.478,-0.363 0.475,-0.39 0.469,-0.415C0.463,-0.44 0.453,-0.46 0.438,-0.478C0.423,-0.495 0.404,-0.508 0.38,-0.517C0.355,-0.526 0.325,-0.531 0.289,-0.531C0.252,-0.531 0.219,-0.522 0.188,-0.503C0.157,-0.484 0.136,-0.458 0.124,-0.427L0.122,-0.427L0.122,-0.516L0.059,-0.516Z" style="fill-rule:nonzero;"/>
                    </g>
                </g>
            </g>
        </g>
    </g>
</svg>
